<?xml version="1.0" standalone="no"?>
<!DOCTYPE svg PUBLIC "-//W3C//DTD SVG 20010904//EN"
 "http://www.w3.org/TR/2001/REC-SVG-20010904/DTD/svg10.dtd">
<svg version="1.0" xmlns="http://www.w3.org/2000/svg"
 width="1098.000000pt" height="1280.000000pt" viewBox="0 0 1098.000000 1280.000000"
 preserveAspectRatio="xMidYMid meet">
<metadata>
Created by potrace 1.15, written by Peter Selinger 2001-2017
</metadata>
<g transform="translate(0.000000,1280.000000) scale(0.100000,-0.100000)"
fill="#000000" stroke="none">
<path d="M3565 12059 c-113 -9 -204 -29 -342 -73 -284 -92 -483 -246 -584
-451 -51 -104 -72 -190 -72 -295 -1 -75 5 -103 47 -235 l48 -149 -21 -66 c-25
-78 -27 -172 -5 -226 35 -86 142 -160 267 -186 41 -9 62 -19 69 -33 6 -11 31
-44 57 -74 45 -54 46 -56 43 -115 -4 -87 -29 -222 -53 -297 -48 -148 -136
-261 -241 -313 -50 -25 -232 -66 -290 -66 -14 0 -28 -4 -30 -8 -1 -4 -115 -32
-253 -61 -137 -29 -251 -54 -252 -55 -2 -1 -27 -52 -57 -112 -93 -190 -158
-285 -311 -451 -135 -147 -237 -235 -304 -263 -35 -14 -35 -16 -17 -49 13 -24
8 -30 -117 -170 -271 -304 -498 -592 -561 -711 -45 -87 -63 -189 -46 -274 24
-125 139 -328 310 -546 175 -224 468 -541 719 -780 145 -137 151 -145 145
-174 -18 -81 4 -140 88 -231 75 -82 167 -149 283 -206 161 -78 273 -84 343
-16 17 17 32 28 32 24 0 -8 -217 -809 -366 -1347 l-106 -385 -136 -1350 c-130
-1278 -138 -1352 -162 -1395 -20 -38 -25 -62 -28 -153 -5 -134 1 -169 40 -212
53 -62 75 -64 588 -64 389 0 464 2 514 16 104 29 155 106 143 219 -3 29 -12
65 -20 80 -12 25 -15 223 -20 1369 l-5 1340 169 540 c94 297 182 575 196 618
l25 78 71 -7 c40 -4 105 -8 146 -8 l74 -1 196 -520 195 -520 -3 -1390 c-2
-861 -7 -1400 -13 -1415 -16 -41 -22 -210 -9 -257 15 -56 51 -97 103 -118 39
-16 89 -18 503 -18 484 0 511 2 575 45 50 35 71 84 71 167 0 74 -17 123 -53
152 -23 18 -16 -59 -88 1004 -22 330 -52 758 -65 950 -14 193 -34 480 -45 638
l-19 288 -60 182 c-33 100 -145 443 -250 763 -105 319 -191 584 -191 589 0 5
7 -1 16 -13 70 -101 303 -62 533 89 145 96 226 208 210 292 -5 29 -4 46 4 53
7 6 84 71 172 145 249 207 414 357 618 562 l188 189 62 -16 c157 -38 319 -56
506 -57 180 0 287 12 446 51 146 35 234 67 436 158 351 159 613 222 922 222
391 0 649 -72 1312 -368 495 -220 736 -304 985 -341 41 -7 90 -14 108 -17 l32
-5 0 1678 -1 1678 -116 74 c-383 244 -678 405 -923 505 -673 273 -1255 252
-1788 -63 -225 -134 -503 -382 -656 -585 -418 -558 -862 -683 -1590 -449 -78
25 -307 112 -511 193 -403 161 -518 203 -670 248 -116 34 -280 68 -378 78 -65
6 -69 8 -96 48 -39 57 -78 154 -96 242 -18 87 -18 104 0 49 13 -38 14 -38 14
-10 -1 17 2 40 6 53 5 15 3 22 -6 22 -8 1 25 21 72 46 91 47 239 165 239 190
0 8 9 32 19 53 52 100 67 336 36 552 -21 151 -37 195 -97 271 -17 21 -26 43
-22 49 4 7 3 9 -3 6 -6 -4 -17 1 -24 11 -12 15 -12 16 2 5 23 -18 29 -7 29 56
0 56 -18 110 -21 66 -1 -11 -5 7 -9 40 -29 244 -106 420 -241 553 -99 98 -246
166 -381 178 -35 3 -74 6 -88 8 -14 1 -65 -1 -115 -5z m-1594 -4051 c14 -29
84 -168 156 -308 320 -619 450 -1014 478 -1445 6 -84 -9 -332 -20 -343 -2 -2
-29 17 -60 42 -66 55 -203 125 -312 162 -66 22 -91 25 -167 23 l-90 -4 -333
600 c-183 330 -333 605 -333 610 0 27 621 709 650 714 3 1 17 -23 31 -51z
m2814 -709 c194 -143 507 -340 662 -418 l83 -41 -53 -83 c-148 -227 -500 -763
-506 -770 -4 -4 -21 -3 -37 3 -42 16 -170 13 -234 -5 -178 -52 -344 -139 -385
-202 l-18 -27 -10 25 c-41 104 -20 311 58 594 75 267 338 975 364 975 3 0 38
-23 76 -51z"/>
</g>
</svg>
