<?xml version="1.0" encoding="iso-8859-1"?>
<!-- Uploaded to: SVG Repo, www.svgrepo.com, Generator: SVG Repo Mixer Tools -->
<!DOCTYPE svg PUBLIC "-//W3C//DTD SVG 1.1//EN" "http://www.w3.org/Graphics/SVG/1.1/DTD/svg11.dtd">
<svg fill="#000000" height="800px" width="800px" version="1.1" id="Capa_1" xmlns="http://www.w3.org/2000/svg" xmlns:xlink="http://www.w3.org/1999/xlink" 
	 viewBox="0 0 400.461 400.461" xml:space="preserve">
<path d="M363.183,140.661c-85.913,23.041-109.339,13.599-133.812,2.597c-2.822-13.106-26.66-23.626-57.081-25.428
	c0.367-1.429,0.577-2.961,0.577-4.564c0-0.096-0.009-0.188-0.01-0.284c2.499-2.512,4.043-5.972,4.043-9.795
	c0-7.667-6.219-13.887-13.893-13.887c-7.664,0-13.879,6.22-13.879,13.887c0,3.818,1.541,7.275,4.032,9.787
	c-0.001,0.098-0.011,0.194-0.011,0.293c0,1.604,0.211,3.135,0.578,4.564c-32.412,1.92-57.363,13.739-57.363,28.038
	c0,0.558,0.048,1.111,0.123,1.661c-0.024-0.013-0.05-0.025-0.074-0.038c0,0-2.876,3.007-6.214,6.542
	c-2.099,1.937-4.05,3.962-5.852,6.062c-7.141-11.477-11.122-25.315-22.562-34.951C19,90.727-29.463,160.778,22.603,185.041
	c7.399,3.521,17.728,9.009,26.595,15.518c-5.281,2.648-8.967,7.977-9.287,14.206c-0.239,1.815,0,3.715,0.633,5.57
	c2.037,7.03,8.512,12.176,16.196,12.176c0.622,0,1.234-0.039,1.838-0.104c5.806-0.467,12.106-4.17,17.57-13.123
	c9.453,18.464,29.7,33.102,55.159,39.847c-4.895,2.508-9.012,5.576-12.062,9.058c-10.756,4.56-17.379,10.793-17.379,17.669
	c0,13.976,27.375,25.305,61.141,25.305c33.779,0,61.152-11.329,61.152-25.305c0-6.876-6.633-13.109-17.385-17.669
	c-2.36-2.697-5.374-5.14-8.88-7.275c90.357-12.563,105.183-74.425,201.134-106.432C406.32,150.355,384.445,135.98,363.183,140.661z
	 M71.029,187.523c-15.962-12.769-45.612-19.846-46.192-36.544c-0.368-14.304,20.224-16.983,30.73-9.805
	c10.475,6.442,16.079,17.24,23.878,25.392C75.165,173.045,72.269,180.099,71.029,187.523z M212.551,168.292
	c-14.002,5.949-32.82,9.226-52.986,9.226c-31.716,0-54.717-7.012-64.628-15.095c1.201-1.278,2.405-2.552,3.505-3.713
	c16.218,7.102,38.017,11.103,61.124,11.103c28.398,0,54.262-5.942,70.704-16.069c0.005,0.003,0.01,0.004,0.016,0.007
	C229.392,158.42,222.631,164.009,212.551,168.292z"/>
</svg>