<?xml version="1.0" encoding="iso-8859-1"?>
<!-- Uploaded to: SVG Repo, www.svgrepo.com, Generator: SVG Repo Mixer Tools -->
<!DOCTYPE svg PUBLIC "-//W3C//DTD SVG 1.1//EN" "http://www.w3.org/Graphics/SVG/1.1/DTD/svg11.dtd">
<svg fill="#000000" height="800px" width="800px" version="1.1" id="Capa_1" xmlns="http://www.w3.org/2000/svg" xmlns:xlink="http://www.w3.org/1999/xlink" 
	 viewBox="0 0 52.999 52.999" xml:space="preserve">
<g>
	<path d="M9.028,14.881c0.147,0.079,0.31,0.118,0.472,0.118c0.194,0,0.387-0.057,0.555-0.168l6-4
		c0.283-0.188,0.449-0.508,0.444-0.848s-0.184-0.654-0.472-0.834c-0.04-0.025-4.024-2.57-5.56-8.405
		C10.339,0.258,9.865-0.05,9.372,0.007C8.873,0.072,8.5,0.496,8.5,0.999v13C8.5,14.368,8.703,14.707,9.028,14.881z"/>
	<path d="M43.86,15.767c0.184,0.152,0.411,0.231,0.641,0.231c0.144,0,0.289-0.031,0.424-0.095c0.352-0.164,0.576-0.518,0.576-0.905
		v-14c0-0.503-0.373-0.927-0.872-0.992c-0.494-0.055-0.968,0.251-1.095,0.737c-1.536,5.835-5.52,8.38-5.558,8.403
		c-0.274,0.169-0.45,0.459-0.473,0.78s0.11,0.634,0.357,0.84L43.86,15.767z"/>
	<path d="M24.446,37.146c1.324,0.504,2.783,0.504,4.107,0l18.59-7.082l1.3-0.563C47.67,18.067,38.127,8.999,26.5,8.999
		c-11.579,0-21.091,8.994-21.933,20.362l1.35,0.727L24.446,37.146z M29.577,25.614c0.122-0.292,0.374-0.509,0.68-0.585l12-3
		c0.448-0.115,0.912,0.096,1.127,0.503c0.215,0.407,0.124,0.908-0.221,1.214l-9,8c-0.185,0.164-0.421,0.253-0.665,0.253
		c-0.05,0-0.1-0.004-0.149-0.012c-0.294-0.044-0.553-0.217-0.707-0.471l-3.004-5.008C29.479,26.237,29.456,25.905,29.577,25.614z
		 M9.616,22.532c0.215-0.407,0.678-0.618,1.127-0.503l12,3c0.308,0.076,0.561,0.295,0.682,0.589
		c0.121,0.293,0.096,0.626-0.068,0.897l-2.998,4.996c-0.153,0.256-0.412,0.431-0.706,0.476c-0.051,0.008-0.102,0.012-0.152,0.012
		c-0.243,0-0.48-0.089-0.665-0.253l-9-8C9.492,23.44,9.401,22.939,9.616,22.532z"/>
	<path d="M47.898,31.917l-18.632,7.099c-0.892,0.339-1.829,0.509-2.766,0.509s-1.874-0.169-2.766-0.509l-18.59-7.082
		c-0.041-0.016-0.08-0.033-0.118-0.054l-0.51-0.275C4.839,43.456,14.573,52.999,26.5,52.999c11.908,0,21.63-9.512,21.983-21.336
		L47.898,31.917z M31.5,45.999h-10c-0.552,0-1-0.447-1-1s0.448-1,1-1h10c0.552,0,1,0.447,1,1S32.052,45.999,31.5,45.999z"/>
</g>
</svg>