<?xml version="1.0" encoding="iso-8859-1"?>
<!-- Uploaded to: SVG Repo, www.svgrepo.com, Generator: SVG Repo Mixer Tools -->
<svg fill="#000000" height="800px" width="800px" version="1.1" id="Layer_1" xmlns="http://www.w3.org/2000/svg" xmlns:xlink="http://www.w3.org/1999/xlink" 
	 viewBox="0 0 512 512" xml:space="preserve">
<g>
	<g>
		<path d="M256,0C114.84,0,0,114.842,0,256s114.84,256,256,256c141.158,0,256-114.842,256-256S397.158,0,256,0z M256,474.537
			c-120.501,0-218.537-98.036-218.537-218.537S135.499,37.463,256,37.463S474.537,135.499,474.537,256S376.501,474.537,256,474.537z
			"/>
	</g>
</g>
<g>
	<g>
		<path d="M132.637,282.49L106.146,256l-26.492,26.49c-14.629,14.629-14.631,38.351,0.001,52.981
			c14.629,14.631,38.35,14.631,52.981,0.001C147.266,320.842,147.267,297.121,132.637,282.49z"/>
	</g>
</g>
<g>
	<g>
		<path d="M199.805,224.781c-13.772,0-24.976,11.204-24.976,24.976s11.204,24.976,24.976,24.976
			c13.767,0,24.971-11.202,24.976-24.976C224.781,235.985,213.579,224.781,199.805,224.781z"/>
	</g>
</g>
<g>
	<g>
		<path d="M312.195,224.781c-13.772,0-24.976,11.204-24.976,24.976s11.204,24.976,24.976,24.976
			c13.767,0,24.971-11.202,24.976-24.976C337.171,235.985,325.968,224.781,312.195,224.781z"/>
	</g>
</g>
<g>
	<g>
		<path d="M184.978,107.097c-26.841,34.333-61.414,63.106-99.977,83.206l17.316,33.223c43.273-22.554,82.064-54.836,112.177-93.355
			L184.978,107.097z"/>
	</g>
</g>
<g>
	<g>
		<path d="M327.021,107.095l-29.515,23.076c30.114,38.519,68.905,70.798,112.178,93.354l17.314-33.223
			C388.437,170.203,353.863,141.431,327.021,107.095z"/>
	</g>
</g>
<g>
	<g>
		<path d="M362.821,351.73c-9.671-14.418-25.74-24.104-44.079-26.575c-20.72-2.802-41.827-4.223-62.737-4.223
			c-20.91,0-42.02,1.421-62.732,4.221c-18.348,2.471-34.418,12.158-44.089,26.577c-8.494,12.664-11.147,27.406-7.471,41.488
			c6.707,25.821,30.74,43.855,58.445,43.855c2.706,0,5.436-0.18,8.168-0.542c15.746-2.129,31.786-3.208,47.676-3.208
			s31.93,1.079,47.728,3.216c2.68,0.356,5.41,0.534,8.118,0.534c0.001,0,0.001,0,0.003,0c27.7,0,51.733-18.034,58.438-43.836
			C373.967,379.133,371.315,364.394,362.821,351.73z M334.03,383.798c-2.38,9.162-11.709,15.812-22.183,15.811
			c-1.07,0-2.147-0.071-3.149-0.202c-17.404-2.355-35.134-3.548-52.697-3.548s-35.293,1.193-52.645,3.54
			c-1.055,0.139-2.132,0.21-3.201,0.21c-10.476,0-19.806-6.648-22.191-15.831c-1.26-4.828,0.919-9.076,2.329-11.179
			c3.7-5.517,10.253-9.277,17.987-10.32c19.065-2.578,38.486-3.884,57.722-3.884c19.237,0,38.656,1.306,57.725,3.885
			c7.726,1.042,14.28,4.803,17.98,10.32C333.116,374.703,335.295,378.951,334.03,383.798z"/>
	</g>
</g>
</svg>