<?xml version="1.0" standalone="no"?>
<!DOCTYPE svg PUBLIC "-//W3C//DTD SVG 20010904//EN"
 "http://www.w3.org/TR/2001/REC-SVG-20010904/DTD/svg10.dtd">
<svg version="1.0" xmlns="http://www.w3.org/2000/svg"
 width="1280.000000pt" height="1014.000000pt" viewBox="0 0 1280.000000 1014.000000"
 preserveAspectRatio="xMidYMid meet">
<g transform="translate(0.000000,1014.000000) scale(0.100000,-0.100000)"
fill="#000000" stroke="none">
<path d="M8629 10136 c-2 -3 -38 -12 -79 -20 -98 -20 -240 -91 -313 -156 -65
-58 -137 -155 -168 -224 -11 -25 -25 -46 -32 -46 -7 0 -200 0 -430 0 -783 1
-1602 -24 -1845 -56 -654 -85 -1157 -378 -1601 -934 -164 -205 -266 -372 -359
-590 -207 -482 -312 -1116 -312 -1887 0 -143 -4 -223 -10 -223 -6 0 -64 23
-130 50 -402 170 -778 250 -1105 236 -246 -10 -408 -51 -620 -156 -329 -164
-607 -473 -825 -915 -194 -397 -255 -623 -307 -1145 -14 -141 -18 -275 -18
-695 0 -654 22 -1011 111 -1820 9 -84 14 -159 11 -167 -3 -8 -31 -20 -63 -27
-184 -40 -364 -183 -449 -356 -40 -80 -85 -245 -85 -308 0 -67 46 -236 86
-315 67 -131 209 -263 345 -318 74 -30 217 -64 269 -64 61 0 227 46 305 85
336 165 472 583 301 923 -71 140 -183 245 -341 318 l-77 36 6 71 c35 365 135
815 247 1118 60 160 196 427 276 539 38 52 115 143 173 201 328 333 675 402
1068 214 337 -161 703 -526 1049 -1046 116 -173 146 -226 137 -240 -3 -6 -31
-22 -61 -35 l-55 -24 28 -48 c237 -402 320 -585 409 -902 59 -209 115 -533
115 -662 0 -26 3 -49 8 -51 4 -3 158 70 342 162 838 417 1433 665 1842 765
411 101 1216 196 2013 237 127 7 233 15 238 19 4 3 -13 89 -37 191 -117 485
-143 685 -162 1247 -6 176 -5 204 9 220 9 10 20 53 27 102 101 764 346 1393
668 1720 108 109 186 165 306 220 138 64 196 75 401 74 146 0 199 -4 281 -22
438 -94 911 -394 1313 -832 58 -64 121 -134 138 -157 l33 -41 -73 -73 c-133
-134 -197 -277 -205 -460 -6 -133 14 -228 68 -337 110 -219 323 -361 567 -378
192 -14 376 53 521 189 101 95 165 213 202 374 25 106 25 137 -1 248 -53 224
-171 380 -361 480 -80 42 -200 75 -277 75 -31 0 -61 4 -68 8 -6 4 -29 97 -52
207 -120 590 -323 1134 -572 1533 -190 305 -450 566 -774 777 -275 179 -536
284 -820 331 -145 24 -428 24 -570 0 -570 -96 -1120 -406 -1830 -1030 -66 -58
-125 -106 -131 -106 -11 0 -463 608 -568 765 -127 189 -229 427 -271 629 -83
405 48 825 382 1226 302 362 468 471 803 525 118 19 314 20 327 3 5 -7 15 -42
22 -78 40 -204 175 -380 363 -475 117 -59 212 -79 342 -73 297 15 537 205 627
498 29 95 32 252 6 350 -55 209 -209 387 -404 468 -98 41 -304 78 -324 58z"/>
</g>
</svg>
